<svg width="128" height="128" xmlns="http://www.w3.org/2000/svg">
  <path d="M84 23.8c-1 0-1.8-.3-2.5-1a8.6 8.6 0 0 1-1.7-2.2 11.5 11.5 0 0 1-1-2.6c-.3-1-.4-1.7-.4-2.3V0h.2c.9 0 1.7 0 2.4.3.8.1 1.7.5 2.7 1.2l4 2.7a211.6 211.6 0 0 1 11.7 9.7c1.4 1.4 2.6 2.6 3.4 3.6.8 1 1.2 1.8 1.4 2.4l.3 1.8v2H84.1zM127.4 84c.3.7.5 1.5.6 2.6 0 1-.4 2-1.4 3a30.4 30.4 0 0 0-2.3 2 6.7 6.7 0 0 1-1 .9l-11.7-10.8a44.3 44.3 0 0 0 1.8-1.5 31 31 0 0 1 1.8-1.4c1-1 2.3-1.4 3.6-1.2a9 9 0 0 1 6.2 3c1 1 1.8 2.2 2.4 3.4zM78.3 96c2 0 3.7-.5 5-1.5l-26.9 25.8H18c-1.7 0-3.6-.5-5.7-1.4a24.5 24.5 0 0 1-5.9-3.7 21.4 21.4 0 0 1-4.5-5.3c-1.2-2-1.8-4-1.8-6.2V16.5c0-1.8.4-3.7 1.3-5.6A18.4 18.4 0 0 1 5 5.6a21.8 21.8 0 0 1 5.3-4c1.9-1 4-1.6 6-1.6h53.3v16c0 1.6.3 3.4.8 5.2a16.7 16.7 0 0 0 2.6 5.2A13.2 13.2 0 0 0 84.2 32h20.3v42.3l-19 18.2c1-1.4 1.5-3 1.5-4.5 0-2.2-.9-4.1-2.6-5.7a8.8 8.8 0 0 0-6.2-2.4H26.1c-2.4 0-4.4.8-6.1 2.4a7.6 7.6 0 0 0-2.5 5.7c0 2.2.8 4 2.5 5.6a8.7 8.7 0 0 0 6.1 2.3h52.1zM26 47.9c-2.4 0-4.4.8-6.1 2.4a7.6 7.6 0 0 0-2.5 5.7c0 2.2.8 4.1 2.5 5.6A8.7 8.7 0 0 0 26 64h52.1a9 9 0 0 0 6.2-2.3A7.3 7.3 0 0 0 87 56c0-2.2-.9-4.1-2.6-5.7a8.8 8.8 0 0 0-6.2-2.3H26.1zM78.5 112l1.8-1.6 3.5-3.2a479.8 479.8 0 0 0 4.6-4.3 500.8 500.8 0 0 1 5-4.7l13.5-12.3 11.6 10.8-13.4 12.4-5 4.6-4.6 4.2a179.5 179.5 0 0 0-3.3 3l-1.5 1.5a62.2 62.2 0 0 1-3.2 2l-2.5 1a83.5 83.5 0 0 1-3.6 1 72.2 72.2 0 0 1-3.4 1l-2.6.5c-1 .1-1.8 0-2.2-.4-.3-.4-.4-1.2-.3-2.2a30 30 0 0 1 1.6-5.4l1-3 .8-2a10.2 10.2 0 0 1 2.2-2.9z"/>
</svg>
