<svg width="128" height="128" xmlns="http://www.w3.org/2000/svg">
  <path d="M18.4 57.5l-.2-.7-.2-1-.1-.5v-2.2l.2-.8.2-1 .4-.9.4-1 .6-1.2.7-1v-.8l.1-.8.2-1 .3-1 .3-1.2.3-.6.2-.5.4-.6.4-.4v-2.7l.3-1.4.2-1.7.4-2 .6-2 .4-1 .4-1.3.5-1.1.6-1.2.5-1.4.7-1.2.7-1.4 1-1.3.4-.7.4-.7 1-1.4 1-1.4L33 15l1.3-1.4 1.3-1.4 1.4-1.4 1.7-1.6 1.1-.9 1.3-1 1.4-.9 1.4-.9 1.4-.7 1.6-.6 1.7-.8 1.6-.6 1.7-.5 1.8-.6 1.7-.4 2-.3L59 .7l2-.3 1.8-.2 2-.1h5.9l2 .2 2 .3 2 .2 1.8.4 2 .4 1.9.5 2 .5 1.9.7 1.8.7 1.9.8 1.7.8 1.7 1 1.6 1 1.5 1 .6.5.7.4 1.3 1.1 1.2 1.1 1 1.1 1.2 1.2.8 1.2 1.1 1.2.8 1.3.7 1.2.8 1.3.7 1.2 1 2.5.6 1.3.4 1.2.5 1.3.4 1.2.2 1 .4 1.3.6 2.2.4 1.9.2 1.9.2 1.5.4 2.2v.4l.3.4.8 1.2.4.8.5.8.5 1 .5 1 .3 1 .3 1.3.3 1.2v.6l.2.8v.6l-.1.6v.8l-.2.8-.4 1.5-.4.8-.3.8v.2l.2.3.4.6 1.7 2.6 1.4 1.9.7 1.2.8 1.4.8 1.5 1 1.7.8 1.8 1 2 .6 1.3.5 1.3.4 1.3.5 1.1.3 1.3.4 1.1.4 2.3.3 2.3.3 2v3l-.2 1-.2 1.7-.3 1.6-.5 1.5-.2.6-.3.7-.3.5-.4.6-.3.4-.4.5-.4.4-.4.3-.5.2-.4.2-.4.1h-.9l-.6-.4-.3-.2-.3-.2-.4-.4-.3-.3-.6-.6-.7-1-.5-.8-.6-.8-.5-.8-.7-1.5-.9-1.6h-.2l-.3.2-.2.4-.4.5-.5 1.5-.9 2.2-1 2.6-1 1.4-.8 1.3-1 1.6-1 1.5-.6.6-.7.8-1.6 1.5.2.1.2.2.7.5 3.3 1.5 1.4.8 1.3.7 1.4 1 1.2 1 .5.4.5.5.4.6.4.7.2.5.2.6.1.6.1.6v.9l-.2.5-.2.4-.1.3-.2.4-.6.8-.6.6-.4.5-.3.3-1 .7-1 .5-1 .5-1.2.6-1.3.5-.7.2-.6.1-1.5.4-1.5.3-1.6.3-1.6.3H100l-1.8.3h-5.5l-2-.1-1.9-.2-2-.3-2-.2-2-.3-2-.5-2-.3-2-.6-2-.7-2-.6-1-.3-1-.4-.6-.2-.6-.1H68l-2-.1-.9-.1-1.2-.2-.8.7-1.1.7-1.5.7-1.6.9-1 .5-1 .3-2.3 1-1.2.3-1.3.3-1.9.3-1 .1-1.3.1-1.2.2H36l-3.3-.4-1.6-.2-1.6-.2-1.6-.2-1.5-.3-1.5-.5-1.4-.3-1.3-.5-1.2-.5-1.2-.5-1-.6-1-.7-.3-.4-.4-.4-.3-.4-.3-.4-.3-.4-.2-.4-.3-.9-.1-.5-.2-.5v-.4l.2-.6v-2.1l.1-.6.3-.6.2-.7.4-.7.3-.3.2-.4.6-.7.5-.4.5-.3.4-.3.7-.2.5-.3.7-.4.8-.2.7-.2 1-.2.8-.1 1-.2h1l.4-.1.2-.2-.2-.4-.6-.2-1.5-1.3-1-.7-1-1-1.2-1-1.2-1.5L19 101l-.6-.9-.6-.8-.6-1-.5-1.1-.7-1-.5-1.3-.5-1.2-.6-1.3L14 91l-.4-1.5v-.1h-.2v-.1H13l-.2.1h-.1l-.2.3v.3l-.2.3-.2.5-.6 1.2-.4.7-.5.6-.6.7-.6.8-.7.8-.8.7-.7.6-.9.5-.9.6-.8.3-1 .3H2.2l-.1-.4-.3-.2-.4-1-.3-.4-.2-.7-.2-.8-.1-.7-.3-1.6-.2-1v-3.2l.2-2.4.2-1.2.2-1.2.2-1.4.4-1.2.4-1.5.4-1.4.6-1.4.5-1.4L4 74l.7-1.5.8-1.5 1-1.5 1-1.4 1.1-1.5 1-1 1-1.3L12 63l.5-.5.7-.7 1-.8 1-.9 1.7-1.4 1.2-1z"/>
</svg>
