<?xml version="1.0" standalone="no"?>
<!DOCTYPE svg PUBLIC "-//W3C//DTD SVG 20010904//EN"
 "http://www.w3.org/TR/2001/REC-SVG-20010904/DTD/svg10.dtd">
<svg version="1.0" xmlns="http://www.w3.org/2000/svg"
 width="520.000000pt" height="520.000000pt" viewBox="0 0 520.000000 520.000000"
 preserveAspectRatio="xMidYMid meet">
<metadata>
Created by potrace 1.11, written by Peter Selinger 2001-2013
</metadata>
<g transform="translate(0.000000,520.000000) scale(0.100000,-0.100000)"
fill="#000000" stroke="none">
<path d="M1897 4883 c-3 -3 -39 -7 -79 -9 -66 -4 -125 -10 -138 -14 -3 -1 -13
-2 -22 -1 -10 1 -18 -3 -18 -10 0 -9 -3 -9 -14 0 -11 9 -18 8 -30 -5 -10 -9
-20 -14 -23 -11 -3 4 -15 1 -27 -5 -11 -7 -24 -13 -28 -14 -5 -1 -9 -2 -10 -4
-2 -1 -10 -3 -19 -5 -10 -1 -40 -14 -67 -28 -28 -14 -53 -23 -56 -20 -3 3 -8
-2 -12 -11 -3 -9 -10 -14 -14 -11 -4 3 -13 -2 -20 -10 -7 -8 -16 -12 -21 -9
-5 3 -9 0 -9 -6 0 -6 -4 -8 -10 -5 -5 3 -10 2 -10 -3 0 -5 -16 -17 -35 -28
-19 -10 -35 -23 -35 -28 0 -5 -3 -7 -6 -3 -6 6 -36 -16 -62 -45 -9 -9 -19 -15
-24 -12 -4 3 -8 1 -8 -5 0 -5 -9 -13 -20 -16 -11 -4 -18 -10 -15 -15 3 -4 -10
-17 -28 -29 -17 -11 -27 -21 -22 -21 6 0 -3 -9 -20 -20 -16 -11 -25 -20 -20
-20 6 -1 -1 -7 -15 -15 -14 -8 -21 -14 -16 -15 5 0 -3 -11 -18 -25 -14 -13
-26 -29 -26 -35 0 -6 -4 -8 -10 -5 -5 3 -10 3 -10 -2 0 -4 -13 -22 -28 -39
-60 -70 -72 -84 -72 -90 0 -4 -11 -17 -26 -30 -14 -13 -21 -24 -17 -24 4 0 3
-4 -2 -8 -18 -12 -66 -82 -58 -82 4 0 0 -5 -9 -11 -10 -5 -18 -14 -18 -20 0
-9 -8 -21 -38 -54 -7 -8 -10 -15 -6 -15 3 0 1 -6 -5 -13 -6 -8 -7 -18 -3 -23
4 -5 3 -6 -2 -2 -10 9 -46 -44 -46 -67 0 -8 -6 -18 -13 -22 -7 -4 -19 -23 -26
-40 -8 -18 -18 -33 -23 -33 -5 0 -7 -4 -3 -9 3 -5 -2 -17 -11 -25 -8 -9 -12
-16 -9 -16 4 0 0 -11 -9 -25 -9 -14 -13 -25 -9 -25 5 0 3 -4 -2 -8 -6 -4 -25
-41 -44 -82 -18 -41 -37 -84 -41 -95 -33 -73 -59 -136 -60 -143 -3 -28 -14
-52 -23 -52 -6 0 -8 -3 -4 -6 3 -3 -4 -31 -15 -62 -11 -32 -21 -61 -22 -67 -1
-5 -4 -14 -8 -20 -3 -5 -9 -26 -14 -45 -11 -49 -11 -49 -14 -55 -1 -3 -4 -9
-5 -15 -1 -5 -4 -12 -5 -15 -1 -3 -4 -9 -5 -15 -1 -5 -3 -11 -5 -12 -1 -2 -3
-12 -5 -23 -4 -23 -10 -46 -24 -93 -5 -18 -10 -35 -10 -37 -1 -3 -1 -6 -2 -7
0 -2 -2 -19 -5 -37 -2 -19 -10 -39 -17 -43 -7 -4 -8 -8 -1 -8 7 0 5 -23 -7
-67 -9 -38 -19 -90 -23 -118 -3 -27 -8 -68 -11 -90 -3 -22 -7 -53 -10 -70 -27
-163 -27 -652 0 -813 3 -17 7 -46 10 -62 11 -66 17 -93 29 -134 7 -23 12 -50
10 -59 -1 -9 3 -17 9 -17 5 0 7 -3 4 -7 -4 -3 -2 -12 3 -19 6 -6 10 -16 9 -20
-1 -5 1 -18 5 -29 31 -81 36 -98 32 -103 -3 -2 3 -17 14 -32 11 -15 17 -30 13
-34 -3 -3 0 -6 7 -6 7 0 10 -3 7 -6 -3 -4 -1 -16 5 -28 7 -11 13 -23 13 -26 0
-3 7 -16 15 -30 8 -14 15 -27 15 -30 4 -18 30 -60 37 -60 4 0 7 -3 6 -7 -3 -9
62 -106 74 -111 4 -2 8 -9 8 -16 0 -6 9 -18 20 -26 11 -8 20 -20 20 -27 0 -7
7 -13 15 -13 8 0 15 -4 15 -9 0 -13 58 -70 64 -63 3 3 6 -2 6 -11 0 -10 7 -17
15 -17 8 0 15 -4 15 -10 0 -5 4 -10 10 -10 5 0 23 -14 40 -31 16 -18 30 -28
30 -23 0 5 5 1 11 -8 5 -10 17 -18 24 -18 8 0 15 -4 15 -8 0 -5 16 -14 35 -22
19 -8 35 -17 35 -22 0 -4 6 -8 13 -9 6 0 34 -11 62 -24 27 -13 53 -21 57 -19
5 3 8 1 8 -3 0 -8 77 -35 105 -38 6 0 15 -4 22 -8 6 -4 23 -8 37 -9 14 -1 26
-5 26 -8 0 -6 33 -11 78 -13 12 -1 22 -3 22 -6 0 -4 19 -7 43 -9 55 -3 69 -6
85 -15 6 -5 12 -5 12 0 0 4 14 8 30 8 17 0 30 -2 30 -5 0 -7 96 -3 109 4 5 3
12 0 14 -6 4 -10 6 -9 6 1 1 11 4 11 16 1 8 -7 15 -8 15 -4 0 5 19 10 43 12
57 3 91 7 102 13 6 3 20 4 33 3 12 0 22 2 22 7 0 4 12 6 28 5 15 -2 31 -1 37
2 5 4 28 8 50 9 21 2 42 7 45 11 3 4 19 8 35 10 55 4 82 9 92 15 5 3 23 9 39
12 38 8 58 13 62 15 2 3 6 4 52 14 19 4 44 11 55 16 21 9 73 22 77 18 2 -1 14
5 28 12 14 8 30 15 35 16 6 2 20 5 32 8 11 2 35 12 52 20 17 9 33 16 36 16 19
1 199 74 207 85 4 5 8 6 8 2 0 -5 15 1 33 12 19 11 37 18 40 14 4 -3 7 -1 7 5
0 7 3 11 8 10 4 -2 73 30 153 70 80 39 149 72 153 72 4 0 14 7 23 15 8 8 19
13 24 10 5 -4 9 -1 9 5 0 7 6 10 12 8 7 -3 18 0 25 6 25 22 38 31 48 32 25 2
74 27 69 35 -3 5 -2 8 3 7 11 -3 56 12 72 25 7 6 20 12 29 13 8 2 18 6 21 11
11 15 45 38 37 26 -4 -7 -3 -13 2 -13 6 0 12 7 16 15 3 8 12 15 20 15 8 0 17
6 19 13 8 18 8 2 10 -373 l2 -345 88 -1 87 -1 0 126 c1 69 1 255 1 413 l-1
287 40 17 c21 10 37 21 34 26 -5 8 10 12 35 9 7 -2 10 2 6 8 -5 10 7 15 28 12
4 0 7 3 7 9 0 5 16 17 35 26 19 9 35 21 35 26 0 5 4 7 9 4 5 -4 11 -3 13 1 1
5 35 28 73 53 39 25 72 48 73 53 2 4 8 5 13 1 5 -3 12 2 15 10 3 9 10 14 14
11 4 -3 11 2 14 11 3 8 10 12 16 9 5 -3 10 1 10 10 0 9 4 14 9 11 5 -3 20 5
34 18 14 13 28 21 31 19 3 -3 8 2 12 11 3 9 15 16 26 16 10 0 16 5 13 10 -3 6
2 13 11 17 18 7 50 31 86 65 10 10 21 18 24 18 6 0 47 36 106 92 15 14 28 24
28 22 0 -3 48 43 108 103 108 109 252 281 252 302 0 6 4 11 9 11 9 0 32 37 78
130 16 30 31 57 35 58 5 2 8 12 8 21 0 10 3 21 7 24 13 13 45 113 67 208 40
176 22 407 -48 593 -32 85 -91 204 -113 228 -9 10 -13 18 -9 18 4 0 -4 15 -18
33 -15 19 -26 37 -26 40 0 11 -119 168 -179 236 -81 93 -142 151 -216 205 -22
17 -42 33 -45 36 -3 4 -21 15 -40 26 -19 10 -37 22 -40 25 -3 3 -20 14 -37 23
-18 9 -33 21 -33 26 0 6 -6 10 -14 10 -8 0 -21 6 -28 13 -7 7 -28 20 -45 28
-18 7 -33 17 -33 20 0 4 -11 10 -24 13 -14 3 -31 12 -38 19 -16 15 -70 41 -80
39 -5 -1 -8 2 -8 6 0 5 -16 14 -35 22 -19 8 -35 18 -35 24 0 5 -3 6 -7 3 -3
-4 -12 -2 -20 4 -7 6 -13 8 -13 3 0 -5 -4 -4 -8 3 -4 6 -14 13 -22 15 -8 2
-21 9 -28 16 -8 7 -17 10 -22 7 -5 -3 -10 -2 -12 2 -4 10 -80 47 -90 45 -5 -1
-8 3 -8 9 0 6 -7 9 -15 5 -8 -3 -15 -1 -15 4 0 6 -7 10 -15 10 -8 0 -15 5 -15
11 0 5 -5 7 -10 4 -6 -3 -10 -1 -10 6 0 7 -3 9 -7 6 -3 -4 -12 -2 -20 4 -7 6
-13 8 -13 3 0 -5 -4 -3 -9 4 -4 7 -18 14 -29 15 -12 1 -22 5 -22 10 0 4 -4 5
-10 2 -5 -3 -10 -1 -10 4 0 6 -7 11 -15 11 -15 0 -23 3 -81 33 -17 9 -34 14
-38 10 -3 -3 -6 -1 -6 6 0 7 -4 9 -10 6 -5 -3 -10 -2 -10 4 0 6 -7 7 -17 4
-10 -4 -14 -2 -9 5 4 7 -1 10 -14 7 -11 -2 -20 1 -20 6 0 6 -4 7 -10 4 -5 -3
-10 -1 -10 6 0 7 -3 9 -7 6 -3 -4 -12 -2 -20 4 -7 6 -13 8 -13 4 0 -4 -6 -2
-14 4 -8 7 -27 14 -42 17 -16 3 -33 9 -40 15 -6 5 -14 6 -17 2 -4 -3 -7 -2 -7
4 0 5 -7 10 -15 11 -8 1 -22 3 -30 4 -8 1 -15 5 -15 10 0 4 -8 8 -18 8 -10 0
-24 6 -31 13 -11 10 -12 9 -6 -3 7 -12 6 -13 -6 -4 -8 5 -48 21 -89 33 -41 13
-86 28 -100 34 -14 6 -29 9 -34 8 -5 -1 -21 2 -35 8 -14 5 -35 12 -46 17 -11
4 -31 9 -45 11 -14 2 -32 7 -40 10 -8 4 -19 8 -25 9 -5 1 -12 3 -15 4 -3 1
-12 3 -20 5 -8 1 -71 15 -139 30 -68 15 -137 28 -155 30 -17 2 -31 4 -31 5 0
1 -11 3 -25 5 -14 1 -43 5 -65 9 -22 4 -71 9 -110 12 -130 10 -154 12 -163 18
-5 3 -12 3 -15 -1z"/>
<path d="M4526 1543 c-2 -2 -12 -5 -23 -7 -37 -8 -111 -47 -151 -81 -43 -37
-92 -113 -95 -145 -1 -11 -4 -20 -8 -20 -13 0 -1 -156 16 -195 18 -42 108
-135 131 -135 8 0 14 -3 14 -8 0 -8 103 -58 160 -77 3 -1 18 -7 33 -13 16 -7
32 -12 36 -12 5 0 14 -7 21 -15 7 -8 16 -12 21 -9 5 3 9 2 9 -3 0 -4 12 -14
28 -21 32 -14 90 -67 113 -102 18 -28 24 -150 8 -150 -6 0 -8 -4 -5 -8 7 -11
-31 -72 -44 -72 -6 0 -9 -4 -6 -9 3 -5 -17 -18 -46 -30 -54 -23 -191 -30 -203
-11 -3 6 -15 10 -26 10 -10 0 -19 5 -19 10 0 6 -4 10 -10 10 -20 0 -63 56 -80
102 -9 26 -16 66 -15 88 1 22 -1 40 -4 41 -3 0 -43 1 -89 2 -66 2 -82 -1 -83
-13 -1 -8 -2 -22 -3 -30 -1 -8 2 -23 7 -32 5 -12 4 -18 -5 -18 -9 0 -9 -3 0
-12 7 -7 12 -21 12 -33 0 -36 48 -124 88 -162 52 -49 72 -65 72 -57 0 4 8 0
18 -9 10 -10 22 -14 25 -10 4 3 7 2 7 -4 0 -5 6 -10 13 -11 6 -1 28 -5 47 -9
31 -6 200 -9 248 -3 19 2 34 8 103 39 64 30 143 110 155 158 4 13 9 23 13 23
12 0 21 188 10 210 -4 8 -13 30 -19 48 -7 17 -17 32 -23 32 -6 0 -8 2 -5 6 7
7 -72 89 -94 97 -10 3 -18 11 -18 17 0 6 -4 8 -10 5 -5 -3 -10 -3 -10 2 0 4
-15 14 -32 22 -18 8 -36 18 -39 23 -3 5 -16 10 -27 11 -12 1 -22 4 -22 8 0 4
-10 10 -22 14 -31 10 -37 12 -43 15 -3 1 -8 3 -12 5 -47 12 -136 59 -168 87
-32 27 -58 75 -50 88 3 6 3 10 -2 10 -4 0 -8 14 -8 30 -1 17 3 30 8 30 4 0 5
4 2 10 -18 28 60 110 120 125 39 11 125 12 125 3 0 -5 9 -8 20 -8 26 0 86 -54
105 -94 9 -18 16 -48 17 -67 l1 -36 89 0 88 1 0 38 c0 21 -4 38 -8 38 -4 0 -9
11 -10 25 -7 93 -141 235 -221 235 -12 0 -21 4 -21 8 0 7 -197 12 -204 5z"/>
</g>
</svg>
